<?xml version="1.0" encoding="UTF-8"?>
<svg xmlns="http://www.w3.org/2000/svg" xmlns:xlink="http://www.w3.org/1999/xlink" width="180px" height="71px" viewBox="0 0 179 71" version="1.1">
<g id="surface1">
<path style=" stroke:none;fill-rule:evenodd;fill:rgb(8.627451%,8.627451%,8.627451%);fill-opacity:1;" d="M 179 66.269531 L 179 71 L 155.445312 71 L 155.445312 66.269531 Z M 122.472656 66.269531 L 122.472656 71 L 98.921875 71 L 98.921875 66.269531 Z M 140.851562 66.269531 L 138.957031 71 L 137.085938 66.269531 Z M 88.085938 66.269531 C 84.53125 69.347656 79.976562 71.027344 75.277344 71 L 37.683594 71 L 37.683594 66.269531 Z M 32.972656 66.269531 L 32.972656 71 L 0 71 L 0 66.269531 Z M 122.472656 56.800781 L 122.472656 61.53125 L 98.921875 61.53125 L 98.921875 56.800781 Z M 144.535156 56.800781 L 142.699219 61.53125 L 135.238281 61.53125 L 133.390625 56.800781 Z M 92.796875 56.800781 C 92.371094 58.464844 91.707031 60.058594 90.820312 61.53125 L 37.683594 61.53125 L 37.683594 56.800781 Z M 32.972656 56.800781 L 32.972656 61.53125 L 0 61.53125 L 0 56.800781 Z M 179 56.800781 L 179 61.53125 L 155.445312 61.53125 L 155.445312 56.800781 Z M 169.578125 47.332031 L 169.578125 52.066406 L 155.445312 52.066406 L 155.445312 47.332031 L 169.582031 47.332031 Z M 122.472656 47.332031 L 122.472656 52.066406 L 108.339844 52.066406 L 108.339844 47.332031 L 122.476562 47.332031 Z M 148.226562 47.332031 L 146.375 52.066406 L 131.542969 52.066406 L 129.679688 47.332031 Z M 92.140625 47.332031 C 92.5625 48.84375 92.796875 50.429688 92.796875 52.066406 L 75.367188 52.066406 L 75.367188 47.332031 Z M 61.238281 47.332031 L 61.238281 52.066406 L 47.105469 52.066406 L 47.105469 47.332031 Z M 23.554688 47.332031 L 23.554688 52.066406 L 9.417969 52.066406 L 9.417969 47.332031 Z M 169.578125 37.867188 L 169.578125 42.601562 L 155.445312 42.601562 L 155.445312 37.867188 L 169.582031 37.867188 Z M 122.472656 37.867188 L 122.472656 42.601562 L 108.339844 42.601562 L 108.339844 37.867188 L 122.476562 37.867188 Z M 151.917969 37.867188 L 150.074219 42.601562 L 127.792969 42.601562 L 125.96875 37.867188 Z M 86.34375 37.867188 C 87.96875 39.203125 89.367188 40.804688 90.441406 42.601562 L 47.105469 42.601562 L 47.105469 37.867188 Z M 23.554688 37.867188 L 23.554688 42.601562 L 9.417969 42.601562 L 9.417969 37.867188 Z M 137.640625 28.398438 L 138.960938 32.226562 L 140.28125 28.398438 L 169.578125 28.398438 L 169.578125 33.132812 L 155.445312 33.132812 L 155.445312 28.78125 L 153.84375 33.136719 L 124.027344 33.136719 L 122.472656 28.78125 L 122.472656 33.136719 L 108.339844 33.136719 L 108.339844 28.398438 L 137.644531 28.398438 Z M 23.554688 28.398438 L 23.554688 33.132812 L 9.417969 33.132812 L 9.417969 28.398438 Z M 90.441406 28.398438 C 89.355469 30.199219 87.96875 31.800781 86.34375 33.132812 L 47.105469 33.132812 L 47.105469 28.398438 Z M 169.578125 18.933594 L 169.578125 23.667969 L 141.914062 23.667969 L 143.578125 18.933594 Z M 134.355469 18.933594 L 136.019531 23.667969 L 108.339844 23.667969 L 108.339844 18.933594 L 134.359375 18.933594 Z M 92.796875 18.933594 C 92.796875 20.570312 92.5625 22.15625 92.140625 23.667969 L 75.363281 23.667969 L 75.363281 18.933594 Z M 61.238281 18.933594 L 61.238281 23.667969 L 47.105469 23.667969 L 47.105469 18.933594 Z M 23.554688 18.933594 L 23.554688 23.667969 L 9.417969 23.667969 L 9.417969 18.933594 Z M 131.09375 9.46875 L 132.726562 14.199219 L 98.925781 14.199219 L 98.925781 9.46875 L 131.097656 9.46875 Z M 179 9.46875 L 179 14.199219 L 145.175781 14.199219 L 146.871094 9.46875 Z M 90.816406 9.46875 C 91.695312 10.929688 92.375 12.519531 92.796875 14.199219 L 37.6875 14.199219 L 37.6875 9.46875 Z M 32.972656 9.46875 L 32.972656 14.199219 L 0 14.199219 L 0 9.46875 Z M 127.789062 0 L 129.453125 4.730469 L 98.921875 4.730469 L 98.921875 0 Z M 179 0 L 179 4.730469 L 148.503906 4.730469 L 150.132812 0 Z M 75.273438 0 C 80.214844 0 84.707031 1.792969 88.085938 4.730469 L 37.6875 4.730469 L 37.6875 0 Z M 32.976562 0 L 32.976562 4.730469 L 0 4.730469 L 0 0 Z M 32.976562 0 "/>
</g>
</svg>
